<svg width="100" height="100" viewBox="0 0 100 100" fill="none" xmlns="http://www.w3.org/2000/svg">
<path d="M1.5 50C1.5 23.2142 23.2152 1.5 50 1.5C76.7848 1.5 98.5 23.2142 98.5 50C98.5 76.7858 76.7848 98.5 50 98.5C23.2152 98.5 1.5 76.7858 1.5 50Z" fill="white" stroke="#004E94" stroke-width="3"/>
<path fill-rule="evenodd" clip-rule="evenodd" d="M44.8306 53.2932H43.5097V51.9404C45.1581 50.6899 46.1515 48.7231 46.1515 46.6429V44.267C46.1515 40.8791 43.78 37.935 40.6416 37.4235C36.5207 36.7642 32.9427 39.9244 32.9427 43.9829V46.6429C32.9427 48.7231 33.9361 50.6899 35.5844 51.9404V53.2932H34.2635C30.6174 53.2932 27.6592 56.2714 27.6592 59.9433V67.9237C27.6592 68.6624 28.246 69.2539 28.9801 69.2539H50.1119C50.846 69.2539 51.4328 68.6624 51.4328 67.9237V59.9433C51.4328 56.2714 48.4767 53.2932 44.8306 53.2932Z" fill="#004E94"/>
<path fill-rule="evenodd" clip-rule="evenodd" d="M60.9848 23.9312C54.3694 23.9312 48.9936 29.3065 48.9936 35.9232C48.9936 38.4173 49.7672 40.843 51.2024 42.8588L49.209 45.8428C48.9365 46.2527 48.9145 46.7764 49.1409 47.2094C49.3695 47.6421 49.8244 47.9153 50.3145 47.9153H60.9738C67.5914 47.9153 72.9672 42.5399 72.9672 35.9232C72.9672 29.3065 67.6024 23.9312 60.9848 23.9312ZM55.6552 37.2555C54.9145 37.2555 54.3233 36.6635 54.3233 35.9232C54.3233 35.183 54.9145 34.5907 55.6552 34.5907C56.3958 34.5907 56.9892 35.183 56.9892 35.9232C56.9892 36.6635 56.3958 37.2555 55.6552 37.2555ZM60.9848 37.2555C60.2464 37.2555 59.6529 36.6635 59.6529 35.9232C59.6529 35.183 60.2464 34.5907 60.9848 34.5907C61.7255 34.5907 62.3189 35.183 62.3189 35.9232C62.3189 36.6635 61.7255 37.2555 60.9848 37.2555ZM66.3167 37.2555C65.576 37.2555 64.9826 36.6635 64.9826 35.9232C64.9826 35.183 65.576 34.5907 66.3167 34.5907C67.0552 34.5907 67.6486 35.183 67.6486 35.9232C67.6486 36.6635 67.0552 37.2555 66.3167 37.2555Z" fill="#004E94"/>
</svg>
