<svg width="100" height="100" viewBox="0 0 100 100" fill="none" xmlns="http://www.w3.org/2000/svg">
<path d="M1.5 50C1.5 23.2141 23.2131 1.5 50 1.5C76.7848 1.5 98.5 23.2142 98.5 50C98.5 76.7858 76.7848 98.5 50 98.5C23.2131 98.5 1.5 76.7859 1.5 50Z" fill="white" stroke="#004E94" stroke-width="3"/>
<path fill-rule="evenodd" clip-rule="evenodd" d="M44.4001 64.1444V68.7334H41.1254C40.4111 68.7334 39.7869 69.2873 39.7518 69.9994C39.7188 70.7567 40.3188 71.3783 41.0792 71.3783H59.3408C60.0551 71.3783 60.6792 70.8246 60.7122 70.1125C60.7474 69.3552 60.1342 68.7334 59.3869 68.7334H56.1672V64.1444H44.4001Z" fill="#004E94"/>
<path fill-rule="evenodd" clip-rule="evenodd" d="M71.6529 28.54H28.6287C27.9804 28.54 27.4463 29.0712 27.4463 29.7156V51.4625H72.8353V29.7156C72.8353 29.06 72.3123 28.54 71.6529 28.54Z" fill="#004E94"/>
<path fill-rule="evenodd" clip-rule="evenodd" d="M28.6397 61.3978H71.6529C72.3013 61.3978 72.8353 60.8666 72.8353 60.2222V54.2543H27.4463V60.2222C27.4573 60.8666 27.9804 61.3978 28.6397 61.3978ZM47.4353 56.4584H52.8002C53.5144 56.4584 54.1408 57.0123 54.1738 57.7244C54.209 58.4815 53.5958 59.1033 52.8441 59.1033H47.4815C46.765 59.1033 46.1408 58.5494 46.1057 57.8373C46.0837 57.08 46.6859 56.4584 47.4353 56.4584Z" fill="#004E94"/>
</svg>
