<svg width="100" height="100" viewBox="0 0 100 100" fill="none" xmlns="http://www.w3.org/2000/svg">
<path d="M1.5 50C1.5 23.2142 23.2152 1.5 50 1.5C76.7848 1.5 98.5 23.2142 98.5 50C98.5 76.7858 76.7848 98.5 50 98.5C23.2152 98.5 1.5 76.7858 1.5 50Z" fill="white" stroke="#004E94" stroke-width="3"/>
<path fill-rule="evenodd" clip-rule="evenodd" d="M52.1692 46.1083C54.4066 46.1083 56.2176 44.2967 56.2176 42.0582C56.2176 39.8197 54.4066 38.0083 52.1692 38.0083C49.9297 38.0083 48.1187 39.8197 48.1187 42.0582C48.1187 44.2967 49.9297 46.1083 52.1692 46.1083Z" fill="#004E94"/>
<path fill-rule="evenodd" clip-rule="evenodd" d="M68.191 30.0831H38.9625C38.224 30.0831 37.6328 30.6741 37.6328 31.4128V72.8128C37.6328 73.7899 37.3492 74.6877 36.8965 75.4719H62.8768C66.5449 75.4719 69.5185 72.4946 69.5185 68.8238V31.4128C69.5185 30.6741 68.9185 30.0831 68.191 30.0831ZM52.2702 35.4926C55.9383 35.4926 58.9141 38.4699 58.9141 42.1407C58.9141 43.8339 58.2658 45.3568 57.2218 46.5273L61.3097 51.982C61.7514 52.573 61.6262 53.4027 61.0482 53.8458C60.457 54.2888 59.6284 54.164 59.1866 53.5845L55.1097 48.1409C54.246 48.5499 53.2921 48.8001 52.2811 48.8001C48.6152 48.8001 45.6393 45.8227 45.6393 42.1519C45.6393 38.4814 48.602 35.4926 52.2702 35.4926ZM62.8987 70.1535H44.2987C43.5603 70.1535 42.9712 69.5625 42.9712 68.8238C42.9712 68.0851 43.5603 67.4943 44.2987 67.4943H62.8987C63.6372 67.4943 64.2284 68.0851 64.2284 68.8238C64.2284 69.5625 63.6262 70.1535 62.8987 70.1535ZM62.8987 64.835H44.2987C43.5603 64.835 42.9712 64.244 42.9712 63.5053C42.9712 62.7666 43.5603 62.1759 44.2987 62.1759H62.8987C63.6372 62.1759 64.2284 62.7666 64.2284 63.5053C64.2284 64.2326 63.6262 64.835 62.8987 64.835ZM62.8987 59.5165H44.2987C43.5603 59.5165 42.9712 58.9256 42.9712 58.1869C42.9712 57.4482 43.5603 56.8574 44.2987 56.8574H62.8987C63.6372 56.8574 64.2284 57.4482 64.2284 58.1869C64.2284 58.9141 63.6262 59.5165 62.8987 59.5165Z" fill="#004E94"/>
<path fill-rule="evenodd" clip-rule="evenodd" d="M29.644 52.736V72.7573C29.644 74.158 30.71 75.3652 32.1078 75.4676C33.6617 75.5815 34.9584 74.3516 34.9584 72.8142V51.4037H30.9715C30.2331 51.4037 29.644 51.9958 29.644 52.736Z" fill="#004E94"/>
</svg>
