<svg width="100" height="100" viewBox="0 0 100 100" fill="none" xmlns="http://www.w3.org/2000/svg">
<path d="M1.5 50C1.5 23.2141 23.2141 1.5 50 1.5C76.7848 1.5 98.5 23.2142 98.5 50C98.5 76.7848 76.7848 98.5 50 98.5C23.2142 98.5 1.5 76.7848 1.5 50Z" fill="white" stroke="#004E94" stroke-width="3"/>
<path fill-rule="evenodd" clip-rule="evenodd" d="M54.2067 28.9148H47.0067C45.0171 28.9148 43.4067 30.5539 43.4067 32.5792C43.4067 34.6045 45.0171 36.244 47.0067 36.244H54.2067C56.1966 36.244 57.8067 34.6045 57.8067 32.5792C57.8067 30.5539 56.1863 28.9148 54.2067 28.9148Z" fill="#004E94"/>
<path fill-rule="evenodd" clip-rule="evenodd" d="M62.5011 31.3228H59.9714C60.0549 31.7146 60.0945 32.1168 60.0945 32.5293C60.0945 35.8603 57.4022 38.5625 54.0811 38.5625H46.8646C43.5442 38.5625 40.8508 35.8603 40.8508 32.5293C40.8508 32.1168 40.8919 31.7146 40.9741 31.3228H38.4453C36.451 31.3228 34.8369 32.9419 34.8369 34.9425V66.479C34.8369 68.479 36.451 70.0988 38.4453 70.0988H62.5011C64.4945 70.0988 66.1077 68.479 66.1077 66.479V34.9425C66.1077 32.9419 64.4835 31.3228 62.5011 31.3228ZM46.5048 62.4988L42.8965 66.1186C42.4235 66.5933 41.6628 66.5933 41.2004 66.1186L39.9976 64.912C39.5246 64.4373 39.5246 63.6746 39.9976 63.2109C40.4705 62.7362 41.2312 62.7362 41.6938 63.2109L42.0433 63.5603L44.7982 60.7977C45.2712 60.323 46.0319 60.323 46.4945 60.7977C46.9776 61.2702 46.9776 62.0351 46.5048 62.4988ZM46.5048 52.7735L42.8965 56.3933C42.4235 56.868 41.6628 56.868 41.2004 56.3933L39.9976 55.1867C39.5246 54.712 39.5246 53.9494 39.9976 53.4856C40.4705 53.0109 41.2312 53.0109 41.6938 53.4856L42.0433 53.8351L44.7982 51.0724C45.2712 50.5977 46.0319 50.5977 46.4945 51.0724C46.9776 51.5362 46.9776 52.2988 46.5048 52.7735ZM46.5048 43.0373L42.8965 46.6571C42.66 46.8944 42.3516 47.0087 42.0433 47.0087C41.7347 47.0087 41.4264 46.8944 41.1899 46.6571L39.9872 45.4505C39.5145 44.9779 39.5145 44.2131 39.9872 43.7494C40.4602 43.2746 41.2209 43.2746 41.6835 43.7494L42.033 44.101L44.7881 41.3362C45.2609 40.8614 46.0217 40.8614 46.4842 41.3362C46.9776 41.7999 46.9776 42.5647 46.5048 43.0373ZM60.0945 65.2724H50.473C49.8046 65.2724 49.2701 64.7362 49.2701 64.0658C49.2701 63.3955 49.8046 62.8592 50.473 62.8592H60.0945C60.7626 62.8592 61.2967 63.3955 61.2967 64.0658C61.2967 64.7362 60.7538 65.2724 60.0945 65.2724ZM60.0945 55.5362H50.473C49.8046 55.5362 49.2701 54.9999 49.2701 54.3296C49.2701 53.6592 49.8046 53.123 50.473 53.123H60.0945C60.7626 53.123 61.2967 53.6592 61.2967 54.3296C61.2967 54.9999 60.7538 55.5362 60.0945 55.5362ZM60.0945 45.8021H50.473C49.8046 45.8021 49.2701 45.2658 49.2701 44.5955C49.2701 43.9252 49.8046 43.3889 50.473 43.3889H60.0945C60.7626 43.3889 61.2967 43.9252 61.2967 44.5955C61.2967 45.2658 60.7538 45.8021 60.0945 45.8021Z" fill="#004E94"/>
</svg>
