<svg width="100" height="100" viewBox="0 0 100 100" fill="none" xmlns="http://www.w3.org/2000/svg">
<path d="M1.5 50C1.5 23.2141 23.2131 1.5 50 1.5C76.7848 1.5 98.5 23.2142 98.5 50C98.5 76.7848 76.7848 98.5 50 98.5C23.2131 98.5 1.5 76.7848 1.5 50Z" fill="white" stroke="#004E94" stroke-width="3"/>
<path fill-rule="evenodd" clip-rule="evenodd" d="M35.3693 50.334L41.6769 44.0131L43.4704 45.8109C43.7978 46.1361 44.3363 46.1361 44.6638 45.8109L52.4176 38.0373V40.1318C52.4176 40.3977 52.5407 40.6636 52.7539 40.8153C53.7319 41.5406 54.8023 40.857 54.8023 39.9274V35.1476C54.8023 34.4838 54.2616 33.9526 53.6088 33.9526H48.6374C48.3715 33.9526 48.1077 34.0753 47.9539 34.2898C47.2308 35.2702 47.9143 36.3427 48.8418 36.3427H50.7363L44.0726 43.0219L42.2792 41.2241C41.9517 40.8988 41.4132 40.8988 41.0857 41.2241L33.5451 48.7823C33.3517 48.9757 33.2616 49.2417 33.3011 49.5076C33.4748 50.723 34.7077 50.9977 35.3693 50.334Z" fill="#004E94"/>
<path fill-rule="evenodd" clip-rule="evenodd" d="M34.4681 65.3957H41.5648C42.2219 65.3957 42.7494 64.8551 42.7494 64.1803V56.721C42.7494 56.0441 42.2219 55.5056 41.5648 55.5056H34.4681C33.8109 55.5056 33.2856 56.0441 33.2856 56.721V64.1803C33.2856 64.8441 33.8109 65.3957 34.4681 65.3957Z" fill="#004E94"/>
<path fill-rule="evenodd" clip-rule="evenodd" d="M53.6307 48.4614H46.378C45.7076 48.4614 45.1714 48.9955 45.1714 49.6614V64.2263C45.1714 64.8922 45.7076 65.4262 46.378 65.4262H53.6307C54.3011 65.4262 54.8395 64.8922 54.8395 64.2263V49.6614C54.8395 49.0043 54.3011 48.4614 53.6307 48.4614Z" fill="#004E94"/>
<path fill-rule="evenodd" clip-rule="evenodd" d="M56.035 45.9713H57.235V64.2175C57.235 64.8856 57.7691 65.4219 58.435 65.4219H65.7164C66.3845 65.4219 66.9186 64.8856 66.9186 64.2175V45.9713H68.1185C68.5581 45.9713 68.9581 45.7339 69.1625 45.3537C69.3801 44.9713 69.3581 44.4988 69.134 44.1274L63.0504 34.4847C62.6086 33.7841 61.4504 33.7841 61.0196 34.4847L55.0197 44.1274C54.7845 44.4988 54.7735 44.9713 54.9889 45.3537C55.1955 45.7339 55.6043 45.9713 56.035 45.9713Z" fill="#004E94"/>
<path fill-rule="evenodd" clip-rule="evenodd" d="M68.1166 67.8196H30.6529V30.3561C30.6529 29.7386 30.2002 29.1931 29.5826 29.1315C28.853 29.0491 28.2441 29.615 28.2441 30.3254V69.0241C28.2441 69.6922 28.7804 70.2285 29.4485 70.2285H68.1474C68.8573 70.2285 69.4244 69.6109 69.3408 68.89C69.2793 68.2724 68.7342 67.8196 68.1166 67.8196Z" fill="#004E94"/>
</svg>
