<svg width="100" height="100" viewBox="0 0 100 100" fill="none" xmlns="http://www.w3.org/2000/svg">
<path d="M1.5 50C1.5 23.2141 23.2139 1.5 50 1.5C76.7861 1.5 98.5 23.2141 98.5 50C98.5 76.7848 76.7861 98.5 50 98.5C23.2139 98.5 1.5 76.7848 1.5 50Z" fill="white" stroke="#004E94" stroke-width="3"/>
<path fill-rule="evenodd" clip-rule="evenodd" d="M70.2686 43.29C69.5901 39.2593 67.5043 35.7817 64.5637 33.2995C61.6232 30.8175 57.8302 29.3406 53.7399 29.3406C53.0725 29.3406 52.5373 29.874 52.5373 30.5406V45.9867C52.5263 46.079 52.5373 46.1713 52.5483 46.2637C52.6606 46.9208 53.2774 47.3604 53.936 47.2483L69.2707 44.6636C69.9293 44.5604 70.3809 43.945 70.2686 43.29Z" fill="#004E94"/>
<path fill-rule="evenodd" clip-rule="evenodd" d="M37.218 63.7494C36.4449 64.5186 36.5066 65.7911 37.3612 66.479C40.5572 69.0219 44.6189 70.5604 49.0308 70.5604V70.5494H49.0418C53.2885 70.5494 57.5242 69.1142 60.9779 66.2526C61.6695 65.679 61.7202 64.6329 61.0814 63.9955L50.1123 53.0834C49.5153 52.4878 48.5351 52.4878 47.9382 53.0834L37.218 63.7494Z" fill="#004E94"/>
<path fill-rule="evenodd" clip-rule="evenodd" d="M67.6541 49.9231C67.5814 49.2067 66.9867 48.6902 66.2973 48.6902C66.2158 48.6902 66.1321 48.699 66.0506 48.71L54.8875 50.7935C53.6739 51.0198 53.2114 52.5231 54.0858 53.4045L62.5968 61.9825C63.295 62.688 64.4669 62.5429 64.9911 61.6924C65.9889 60.066 66.74 58.2726 67.2113 56.3781C67.2223 56.3451 67.2224 56.3143 67.2334 56.2836C67.3259 55.9099 67.3964 55.5385 67.4691 55.1539C67.7664 53.455 67.8391 51.7034 67.6541 49.9231Z" fill="#004E94"/>
<path fill-rule="evenodd" clip-rule="evenodd" d="M47.4405 50.1628L48.7004 48.9056C48.989 48.6177 49.1541 48.2243 49.1541 47.8221V34.6716C49.1541 33.9087 48.5352 33.3008 47.7907 33.3008C47.7599 33.3008 47.7202 33.3008 47.6894 33.3008C38.0727 34.0531 30.5088 42.0814 30.5088 51.8727C30.5088 55.4595 31.5198 58.8111 33.2753 61.6441C33.7907 62.4902 34.9669 62.6133 35.6674 61.9122L47.4405 50.1628Z" fill="#004E94"/>
</svg>
